<?xml version="1.0" standalone="no"?>
<!DOCTYPE svg PUBLIC "-//W3C//DTD SVG 20010904//EN"
 "http://www.w3.org/TR/2001/REC-SVG-20010904/DTD/svg10.dtd">
<svg version="1.0" xmlns="http://www.w3.org/2000/svg"
 width="400.000000pt" height="400.000000pt" viewBox="0 0 400.000000 400.000000"
 preserveAspectRatio="xMidYMid meet">

<g transform="translate(0.000000,400.000000) scale(0.100000,-0.100000)"
fill="#000000" stroke="none">
<path d="M1886 3629 c-21 -5 -61 -20 -88 -34 -27 -14 -56 -25 -64 -25 -25 0
-94 -40 -137 -79 -23 -21 -57 -43 -76 -50 -75 -25 -128 -87 -146 -171 -4 -19
-17 -41 -28 -49 -10 -8 -30 -38 -43 -68 -20 -44 -24 -70 -24 -147 0 -51 -7
-125 -16 -164 -15 -66 -15 -79 1 -174 20 -118 80 -313 106 -343 9 -11 24 -46
32 -78 32 -121 92 -186 195 -208 155 -33 308 55 348 199 23 85 32 102 53 102
26 0 38 -18 51 -74 33 -148 138 -230 295 -230 89 0 138 18 187 71 28 29 68
112 68 141 0 9 11 40 25 67 13 28 25 57 25 66 0 9 6 32 14 50 8 19 26 117 41
219 36 250 34 411 -7 484 -16 27 -28 57 -28 68 0 48 -66 136 -160 212 -115 94
-224 144 -325 147 l-40 2 35 7 35 7 -40 2 c-23 0 -46 6 -52 12 -6 6 -38 9 -77
7 -55 -2 -64 -1 -49 10 9 6 24 12 32 13 12 0 10 3 -4 9 -26 11 -89 11 -139 -1z
m-93 -531 c67 -34 177 -36 314 -4 125 29 245 34 297 12 45 -19 104 -72 126
-115 31 -61 41 -115 51 -279 5 -86 12 -168 14 -182 20 -99 21 -93 -13 -85
-101 22 -246 22 -366 0 -17 -3 23 17 89 44 125 52 169 59 238 40 22 -6 41 -9
43 -6 2 2 -23 28 -57 57 -50 43 -68 53 -97 53 -52 0 -292 -83 -292 -100 0 -8
-5 -11 -10 -8 -6 4 -2 -16 9 -44 l19 -50 -50 -10 c-76 -17 -141 -13 -283 15
-140 27 -278 33 -374 14 -30 -5 -55 -9 -57 -8 -7 8 16 381 26 428 23 103 45
127 170 188 147 71 144 70 203 40z m-53 -688 c86 -14 138 -37 156 -71 19 -37
18 -59 -6 -121 -40 -106 -124 -155 -251 -146 -90 7 -126 29 -162 100 -34 65
-40 161 -13 202 27 42 141 57 276 36z m734 0 c57 -13 78 -39 84 -102 5 -67
-27 -157 -69 -192 -72 -61 -225 -61 -305 0 -44 33 -84 116 -84 175 0 40 4 51
30 72 51 44 246 70 344 47z"/>
<path d="M1542 2663 c-16 -3 -40 -31 -78 -89 -30 -46 -54 -86 -54 -89 0 -3 17
5 38 18 83 53 92 53 256 7 162 -45 166 -44 166 17 0 17 3 39 7 49 4 12 3 15
-5 10 -8 -5 -12 1 -13 16 0 13 -3 18 -6 11 -3 -8 -10 -9 -21 -4 -9 5 -68 19
-130 31 -62 11 -118 22 -125 24 -7 2 -22 1 -35 -1z"/>
<path d="M1655 2320 c-7 -21 -30 -27 -39 -11 -12 19 -41 4 -44 -22 -2 -19 5
-36 27 -57 33 -33 66 -38 110 -15 32 16 41 33 41 75 0 23 -4 28 -19 25 -11 -2
-25 3 -32 11 -16 20 -37 17 -44 -6z m55 -60 c0 -5 -4 -10 -9 -10 -6 0 -13 5
-16 10 -3 6 1 10 9 10 9 0 16 -4 16 -10z"/>
<path d="M1795 2306 c10 -14 19 -26 22 -26 7 0 -17 39 -28 46 -6 3 -3 -5 6
-20z"/>
<path d="M1470 2295 c0 -5 5 -17 10 -25 5 -8 10 -10 10 -5 0 6 -5 17 -10 25
-5 8 -10 11 -10 5z"/>
<path d="M1838 2209 c-9 -28 -231 -44 -278 -19 -19 10 -22 10 -13 0 16 -18
101 -31 153 -25 103 14 150 27 150 41 0 16 -7 19 -12 3z"/>
<path d="M2222 2307 c-22 -23 -52 -87 -52 -109 1 -7 10 9 20 36 11 27 29 59
41 72 13 13 20 24 17 24 -2 0 -14 -10 -26 -23z"/>
<path d="M2330 2315 c0 -13 -7 -15 -35 -9 -31 5 -35 4 -35 -14 0 -34 11 -52
41 -68 35 -18 74 -10 94 19 23 33 18 60 -12 75 -36 16 -53 15 -53 -3z m50 -50
c0 -8 -4 -15 -9 -15 -13 0 -22 16 -14 24 11 11 23 6 23 -9z"/>
<path d="M2500 2272 c-32 -59 -72 -82 -163 -92 -64 -6 -67 -7 -22 -9 98 -2
171 37 200 107 22 51 13 48 -15 -6z"/>
<path d="M2464 1299 c4 -63 9 -149 13 -193 l6 -78 -101 -97 c-55 -53 -113
-116 -130 -141 -16 -25 -73 -88 -126 -142 -53 -53 -96 -102 -96 -110 0 -7 -18
8 -40 34 -22 25 -69 67 -105 92 -35 26 -86 74 -112 109 -26 34 -74 90 -105
125 -31 34 -76 91 -99 125 l-41 62 6 143 c8 164 14 156 -90 117 -124 -47 -184
-93 -220 -170 -13 -27 -24 -57 -24 -66 0 -11 -12 -19 -34 -23 -32 -6 -36 -11
-51 -61 -11 -39 -30 -70 -68 -112 -30 -32 -56 -65 -59 -74 -5 -12 -25 -19 -75
-24 -93 -10 -162 -37 -268 -106 -129 -83 -125 -80 -135 -125 -11 -47 -30 -342
-30 -460 l0 -81 38 -6 c20 -3 700 -9 1511 -13 l1474 -7 -7 134 c-19 367 -34
447 -99 509 -57 55 -115 82 -291 132 -143 41 -150 44 -163 75 -7 18 -13 44
-13 59 0 39 -36 95 -83 130 -23 16 -59 43 -80 58 -27 20 -48 49 -71 100 -39
84 -55 100 -160 156 l-79 43 7 -114z"/>
</g>
</svg>
